<svg width="48" height="48" viewBox="0 0 48 48" fill="none" xmlns="http://www.w3.org/2000/svg">
<circle cx="24" cy="24" r="24" fill="#E8EAEC"/>
<path d="M29.5 20C30.4 20 31 19.4 31 18.5C31 17.6 30.4 17 29.5 17C28.6 17 28 17.6 28 18.5C28 19.4 28.6 20 29.5 20Z" fill="#455565"/>
<path d="M34 18.5C34 16 32 14 29.5 14H18.5C16 14 14 16 14 18.5V29.6C14 32 16 34 18.5 34H29.6C32.1 34 34.1 32 34.1 29.5V18.5H34Z" stroke="#455565" stroke-width="1.5" stroke-miterlimit="10" stroke-linecap="round" stroke-linejoin="round"/>
<path d="M24 28C26.2091 28 28 26.2091 28 24C28 21.7909 26.2091 20 24 20C21.7909 20 20 21.7909 20 24C20 26.2091 21.7909 28 24 28Z" stroke="#455565" stroke-width="1.5" stroke-miterlimit="10" stroke-linecap="round" stroke-linejoin="round"/>
</svg>
