<svg width="48" height="48" viewBox="0 0 48 48" fill="none" xmlns="http://www.w3.org/2000/svg">
<circle cx="24" cy="24" r="24" fill="#E8EAEC"/>
<path d="M34 19.1C35.4 18.2 36 16.7 36 15.9C34.6 16.2 33.2 16.2 32.8 16.3C32.8 16.3 32.8 16.3 32.7 16.3C31.7 14.9 30.1 14 28.3 14C25.4 14 23 16.2 23 19.1C23 19.4 23 19.8 23.1 20.1C19.1 19.7 16 18 13.4 15C12.8 16.1 12.7 17.3 13 18.5C13.4 19.7 14 20.7 15.1 21.5C14.4 21.5 13.6 21.3 12.9 20.9C12.9 21.9 13.6 24.7 17 25.8C17 25.8 16.1 26.1 14.7 25.9C15.1 27.4 16.8 29.2 19.3 29.3C18.6 29.9 17.7 30.4 16.9 30.7C14.4 31.6 12 31.6 12 31.6C14.4 33.1 22.3 35.9 28.6 31.9C35.6 27.5 34 19.1 34 19.1Z" stroke="#455565" stroke-width="1.5" stroke-miterlimit="10" stroke-linecap="round" stroke-linejoin="round"/>
</svg>
