<svg width="48" height="48" viewBox="0 0 48 48" fill="none" xmlns="http://www.w3.org/2000/svg">
<circle cx="24" cy="24" r="24" fill="#E8EAEC"/>
<path d="M26.0001 16H20.0001C20.0001 16 21.0001 17 21.0001 18V25C21.0001 25 19.5001 24.8 17.5001 21C16.2001 18.4 16.0001 16 16.0001 16H11.0001C11.0001 16 10.9001 24.2 18.0001 30C21.2001 32.6 26.0001 32 26.0001 32V27C26.0001 27 26.9001 26.9 28.9001 28.7C30.9001 30.5 31.6001 32 31.6001 32H37.1001C36.6001 28.3 31.9001 24.5 31.9001 24.5C31.9001 24.5 35.1001 20.5 36.8001 16H31.7001C28.7001 21.8 26.2001 24.3 26.2001 24V16H26.0001Z" stroke="#455565" stroke-width="1.5" stroke-miterlimit="10" stroke-linecap="round" stroke-linejoin="round"/>
</svg>
