<svg width="48" height="48" viewBox="0 0 48 48" fill="none" xmlns="http://www.w3.org/2000/svg">
<circle cx="24" cy="24" r="24" fill="#E8EAEC"/>
<path d="M21.4 18.8999L28.5 24.0999L21.4 28.9999V18.8999Z" stroke="#455565" stroke-width="1.5" stroke-miterlimit="10" stroke-linecap="round" stroke-linejoin="round"/>
<path d="M24 14C20.3 14 18.5 14 16.6 14.1C14.2 14.2 12.2 16.2 12.1 18.7C12 20.1 12 21.8 12 24C12 26.1 12 27.8 12.1 29.2C12.2 31.7 14.2 33.7 16.6 33.8C18.5 33.9 20.3 34 24 34C27.7 34 29.4 33.9 31.4 33.8C33.8 33.7 35.8 31.7 35.9 29.2C36 27.9 36 26.2 36 24C36 21.8 36 20.1 35.9 18.8C35.8 16.3 33.8 14.3 31.4 14.2C30.4 14.1 24 14 24 14Z" stroke="#455565" stroke-width="1.5" stroke-miterlimit="10" stroke-linecap="round" stroke-linejoin="round"/>
</svg>
